# xmcd
# Track frame offsets:
# 183
# 19810
# 39818
# 53785
# 67705
# 81623
# 93648
# 108140
# 117618
# 130485
# 144548
# 156418
# 168645
# 181368
#
# Disc length: 2601 seconds
# Revision: 0
# Processed by: cddbd v1.4PL0 Copyright (c) Steve Scherf et al.
# Submitted via: VisiTrax 2.9.5.181 - For more info visit www.synapsa.com
#
DISCID=c30a270e
DTITLE=Various Artist - Country Balladeers
DYEAR=1900
DGENRE=
TTITLE0=Kenny Rogers - Coward of the county
TTITLE1=Marty Robbins - El Paso
TTITLE2=Johnny Cash - Don't take your guns to town
TTITLE3=Glen Campbell - Wichita Lineman
TTITLE4=George Jones and Tammy Wynette - Golden ring
TTITLE5=Johnny Horton - When it's springtime in Alaska
TTITLE6=Rosanne Cash - Tennessee flat top box
TTITLE7=Flatt and Scruggs - The ballad of Jed Clampett
TTITLE8=Stonewall Jackson - B.J. the D.J.
TTITLE9=Tanya Tucker - What's your mama's name
TTITLE10=George Jones - She thinks i still care
TTITLE11=Del Reeves - Girl on the billboard
TTITLE12=Sonny James - Running bear
TTITLE13=Lefty Frizzell - Saginaw, Michigan
EXTD=
EXTT0=
EXTT1=
EXTT2=
EXTT3=
EXTT4=
EXTT5=
EXTT6=
EXTT7=
EXTT8=
EXTT9=
EXTT10=
EXTT11=
EXTT12=
EXTT13=
PLAYORDER=
